<svg xmlns="http://www.w3.org/2000/svg" viewBox="0 0 190.38 190.25"><defs><style>.cls-1{fill:#252e65;}</style></defs><g id="Layer_2" data-name="Layer 2"><g id="Layer_1-2" data-name="Layer 1"><path class="cls-1" d="M30.67,118.13l.1.25-.07.17-.55.38-.37.44-.24.6.12.8.26.6.11.09h.15l6.91-3,.18-.22,0-.41-.28-.66.07-.17.24-.11.17.07.38.9.3,1,.53.91.38.9-.07.17-.24.1-.17-.07-.28-.66L38,120l-.3,0-6.9,3-.1.12v.14l.26.6.49.65.6.24.58,0,.66-.14.17.07.1.24-.07.17-2.16.93-.17-.07,0-.29-.73-1.68-.49-1.5L29.21,121l-.72-1.69-.22-.19.07-.17,2.16-.92Z"/><path class="cls-1" d="M34.08,105.59l.23.89.13,1,.39,1,.25,1-.1.16-.25.06-.16-.09-.15-.57-.25-.47-.29-.06-3.29.85-.09.16.92,3.54.16.1,3.28-.86.22-.19v-.54l-.15-.57.09-.16.26-.06.16.09.24,1,.14,1,.39,1,.23.89-.1.16-.25.06-.16-.09-.13-.51-.26-.47-.28-.06-7.09,1.84-.21.19v.54l.13.5L28,117l-.26.07-.15-.1-.23-.88-.14-1-.39-1-.25-1,.1-.16.25-.07.16.09.15.58.26.47.28.06,2.91-.75.09-.16-.91-3.55-.16-.09-2.91.75-.22.2v.54l.15.56-.09.16-.26.07-.16-.09-.24-1-.14-1-.39-1-.23-.88.1-.16.25-.07.16.1.13.5.26.48.28.06L33.49,107l.22-.19v-.54l-.13-.51.09-.15.26-.07Z"/><path class="cls-1" d="M33.35,97.1l-.1.27.34,3.51,0,1.57.23,1,.09.91-.12.14-.26,0-.14-.12,0-.52-.18-.51-.27-.1-7.28.71-.24.15-.08.54.05.52-.12.14-.26,0-.14-.11-.09-.91,0-1.05-.28-1.55-.32-3.25L24,98.28l.12-.15,2.21-.21.14.11,0,.26-.12.15-.51.18-.49.31-.35.43-.17.93L25,102l.17.38.27.1,3.05-.3.12-.14-.09-1-.39-.62-.68-.26-.65.06-.14-.12,0-.26.12-.14.91-.09,1,0,1-.16.9-.09.15.12,0,.26-.11.14-.65.07-.62.38-.26.69.09,1,.14.12,3.45-.34.24-.16.1-.4-.16-1.62-.36-1L32,98.08l-.69-.25-.66-.07-.14-.12,0-.26.12-.14,2.6-.26Z"/><path class="cls-1" d="M25.5,82.63l-.05.52.14.53.25.16,6.56.69A3.57,3.57,0,0,1,33.87,88a3.41,3.41,0,0,1-2.16,3.06l-6.62-.69-.28.1-.18.5-.06.52-.14.12-.26,0-.12-.14.1-.91.24-1,0-1,.09-.91.14-.11.26,0,.12.15-.05.52.07.53.25.16,6.1.64a1.9,1.9,0,0,0,1.77-1.79,2,2,0,0,0-1.33-2.37l-6-.63-.27.1-.25.5-.06.52-.14.11-.26,0-.12-.15.07-.65.22-.89,0-.92.07-.72.15-.12.26,0Z"/><path class="cls-1" d="M28.33,71.48l-.14.51.06.55.32.29,7.76,2.11.09.16-.09.32-.19.21L27.73,78.7l-.51.1.52.1,5.92,1.61.43-.08.33-.46.14-.5.16-.09.25.06.09.16-.19.7-.36.85-.12.91-.17.63-.16.1-.25-.07-.09-.16.13-.51-.05-.55-.33-.29-6.8-1.85-.29,0-.33.46-.15.56-.16.1-.25-.07-.09-.16.22-.82.27-.74.07-.52.12-.44.26-.21,6.91-2.52.5-.11-.51-.09-4.86-1.32-.43.08-.32.46-.12.44-.16.09-.25-.07-.1-.16.18-.63.36-.85.11-.91.18-.64.16-.09.25.07Z"/><path class="cls-1" d="M38.67,69.12l-.34.84-.52.92-.28,1-.35.85-.17.07-.24-.1-.07-.17.2-.49.08-.53-.2-.22L30,68.51l-.29,0-.32.44-.2.48-.17.07-.25-.1-.07-.17.35-.85.52-.91.28-1,.35-.84.17-.07.24.1.07.17-.2.48-.08.53.19.22,6.76,2.79.29,0L38,69.4l.2-.48.17-.07.24.1Z"/><path class="cls-1" d="M41.41,64.35a4.12,4.12,0,0,1-5.93,1.46L35,65.55a4.47,4.47,0,0,1-1.91-6.19A4.12,4.12,0,0,1,39,57.91l.46.26A4.47,4.47,0,0,1,41.41,64.35Zm-7.53-5-.31.43-.2.49c-.41,1-.06,2.22,2.67,3.76s4,1.2,4.61.35L41,64l.2-.49c.4-1,.06-2.22-2.67-3.76S34.51,58.5,33.88,59.34Z"/><path class="cls-1" d="M43.09,46.75l-.33.41-.17.53.18.39,6.26,5,0,.18-.21.26-.26.12-8.94-.56-.5-.11.43.3,4.79,3.85.42.09.48-.28.33-.41.19,0,.2.16,0,.19-.45.56-.68.63-.47.79-.41.51-.18,0-.2-.16,0-.18.32-.41.18-.53-.18-.4-5.5-4.42-.29-.06-.48.28-.37.46-.18,0-.2-.17,0-.18L37.4,53l.54-.57.28-.45.28-.36.32-.08,7.35.46.5.1-.43-.29-3.92-3.16-.43-.09-.48.29-.29.35-.18,0-.2-.16,0-.18.4-.51.68-.63.47-.8.41-.51.18,0,.21.17Z"/><path class="cls-1" d="M58.56,44.62l-.28.07-2.52,2.09-1.29.9-.72.77-.7.58-.18,0-.17-.2,0-.18.4-.34.32-.43-.07-.29-4.68-5.63-.26-.11-.49.23-.4.33h-.19l-.16-.2V42l.71-.58.89-.57.72-.77.8-.67.18,0,.17.2,0,.19-.5.41-.32.44.07.28,4.68,5.63.26.12.39-.15,1-.83.64-.87.07-.74-.17-.71-.35-.73,0-.18.2-.17.19,0,1.75,2.11Z"/><path class="cls-1" d="M65.34,40.29l-.29,0-3,1.87-1.4.73-.81.67-.78.48-.18,0-.13-.22,0-.18.44-.28.37-.39,0-.29L55.7,36.48l-.25-.15-.52.17-.44.28-.18,0-.14-.22,0-.18.78-.49.95-.45,1.26-.94L60,32.72l.15-.25.18,0,1.19,1.88,0,.18-.22.14-.18,0-.39-.37L60.15,34l-.54-.12-.92.27-1.43.9-.27.32,0,.29,1.64,2.6.18,0,.83-.52.37-.63L60,36.42l-.34-.56,0-.18.22-.14.18,0,.48.78.47.86.58.8.48.77L62,39l-.22.14-.18,0-.34-.55-.63-.38-.73.07-.82.52,0,.18,1.85,2.93.25.15.4-.1L63,41l.75-.78.16-.72-.07-.72-.24-.62,0-.18.22-.14.18,0,1.39,2.21Z"/><path class="cls-1" d="M74,36.13l-.71.32-1,.31-.9.55-1,.43-.17-.07-.11-.24.07-.17.47-.21.43-.34v-.29L69.77,35l-.2-.12-2.85,1.29,0,.23.19,1.85.34.27.53-.09.41-.19.18.07.1.23-.06.18-.78.34-.76.21-.66.44-.66.29-.17-.06-.11-.24.07-.17.41-.19L66,39l.16-.43-.68-8.43.06-.17.39-.18.55-.38.17.06,6,6.29.35.14.41,0,.36-.16.17.07.11.24Zm-7.58-4.75L66.11,31l.09.53.37,3.84.14.15,2.39-1.07,0-.2Z"/><path class="cls-1" d="M81.07,30.05l-.37.11-.34.23-.06.29,1,3.27-.09.16-.25.07-.72-.61a3.34,3.34,0,0,1-2.1,1.69l-.12,0c-2.14.62-4.33-.38-5.13-3.14l-.14-.51a4.44,4.44,0,0,1,2.84-5.71,2.9,2.9,0,0,1,2.28.15l.36-.64.32-.09.16.09L79.38,28l-.09.16-.25.07-.16-.09-.43-.55A2.47,2.47,0,0,0,75.7,26.5c-1.63.47-2,2.13-1.21,4.77.87,3,1.93,3.86,3.56,3.39a2.29,2.29,0,0,0,1.44-1.16l-.69-2.38-.2-.22-.41,0-.63.19L77.4,31l-.08-.25.09-.17.88-.25,1-.16,1-.42.63-.18.16.09.07.25Z"/><path class="cls-1" d="M90.8,24l-.52.07-.49.26-.1.27.82,6.54a3.56,3.56,0,0,1-3.07,2.23A3.39,3.39,0,0,1,84,31.94l-.83-6.61L83,25.09,82.44,25l-.51.07L81.78,25l0-.26.11-.15.91-.11h1l1-.26.91-.12.14.12,0,.26-.12.14-.52.07-.5.19-.09.28.76,6.08a1.89,1.89,0,0,0,2.14,1.31c1.55-.19,2.07-1.31,2-1.83l-.76-6-.16-.24-.55-.13-.51.06-.15-.11,0-.26.11-.15.65-.08.92,0,.89-.25.71-.08.15.11,0,.26Z"/><path class="cls-1" d="M100.12,32.83l-.25-.14-3.53-.08-1.57-.16-1,.1-.92,0-.13-.13v-.26l.13-.13h.53l.52-.12.14-.26.16-7.31-.12-.26-.52-.15H93l-.12-.13v-.26l.14-.13.91,0,1,.15,1.57-.09,3.27.07.26-.12.13.13,0,2.22-.13.13h-.26l-.13-.13-.12-.53-.25-.53-.38-.4L98,24l-1.7,0-.4.13-.13.25-.07,3.07.13.14,1,0,.66-.31.34-.65V26l.14-.13h.26l.13.13,0,.91-.09,1,0,1,0,.92-.13.13h-.26l-.13-.13v-.66l-.31-.66-.65-.34-1,0-.14.13-.07,3.46.12.26.39.14,1.63,0,1-.24.54-.51.34-.65.14-.65.14-.12h.26l.13.14-.06,2.61Z"/><path class="cls-1" d="M109,34.43A4.12,4.12,0,0,1,106,29.16l.12-.51a4.46,4.46,0,0,1,5.38-3.58,4.12,4.12,0,0,1,3.07,5.27l-.12.51A4.47,4.47,0,0,1,109,34.43Zm2.68-8.63-.5-.18-.52-.06c-1-.11-2.14.58-2.85,3.63s0,4.15,1,4.51l.49.18.53.06c1,.11,2.14-.58,2.85-3.63S112.7,26.16,111.72,25.8Z"/><path class="cls-1" d="M123.68,31.86l-.25-.09-.07-.17.07-.53-.05-.59-.22-.5-.76-.58-1.58-.62-.41,0-.22.2-1.17,3,.07.17.92.36.72-.07.55-.49.24-.61.17-.07.24.1.07.17-.33.85-.42.88-.3.94-.34.85-.16.07L120.2,35l-.07-.17.24-.61-.07-.73-.49-.54-.91-.36-.17.08-1.22,3.1,0,.29.44.31.61.24.07.17-.09.24-.18.08-1-.39-.92-.5-1-.26-.85-.34-.08-.17.1-.24.17-.07.48.19.54.07.22-.2,2.67-6.8,0-.3-.44-.31-.49-.19-.07-.17.1-.24.16-.08.86.34.92.5,1.51.45,3,1.2.29,0,.07.17-.81,2.07Z"/><path class="cls-1" d="M130.76,38.94l-.89-.55-.18,0L128.09,41l0,.29.37.39L129,42l0,.18-.14.22-.18,0-.88-.55-.81-.67-1-.45-.78-.49,0-.18.14-.22.18,0,.44.28.51.17.25-.15L130.67,34l0-.29-.37-.39-.44-.28,0-.18.14-.22.18,0,.77.49.81.66,1.39.73.67.42c1.6,1,2.16,2.45,1.39,3.66C134.33,39.89,132.52,40.06,130.76,38.94Zm2.44-3.86-.56-.35-.4-.1-.25.16-1.88,3,0,.18.72.46a1.93,1.93,0,0,0,2.88-.65A1.8,1.8,0,0,0,133.2,35.08Z"/><path class="cls-1" d="M139.28,50.78l-.69-.6-.7-.78-.88-.58-.74-.65V48l.17-.2h.18l.45.38.48.25.27-.11L140,45.73v-.19l-2.77-2.39h-.18l-2.22,2.57-.08.28.31.44.45.39V47l-.17.2h-.19l-.74-.64-.7-.78-.88-.59-.69-.6v-.18l.17-.2h.19l.39.34.48.25.27-.12,4.79-5.53.07-.28-.31-.44-.39-.34,0-.19.17-.19.19,0,.69.6.7.78.88.59.74.64v.19l-.17.19-.18,0-.45-.39-.48-.24-.27.11-2,2.27v.19l2.77,2.39h.18l2-2.27.07-.29-.31-.44-.45-.38v-.19l.17-.19.19,0,.74.64.7.79.88.58.69.6v.18l-.17.2-.18,0-.4-.35-.48-.24-.27.11L139,49.32l-.07.28.31.44.39.35,0,.18-.17.2Z"/><path class="cls-1" d="M142.72,54.77l-.61-.68-.6-.87-.79-.69-.61-.69v-.18l.19-.18.19,0,.35.39.44.3.28-.08L147,47.24l.11-.27-.25-.48-.35-.39v-.18l.2-.17h.18l.61.68.6.87.79.69.61.68v.18l-.2.18h-.18l-.35-.39-.44-.3-.28.07-5.46,4.87-.11.27.25.48.35.39v.18l-.2.18Z"/><path class="cls-1" d="M147.5,61.59l0-.29-1.8-2.8-.73-1.39-.68-.81-.49-.77,0-.18.22-.14.18,0,.28.44.39.37.3,0,6.15-3.94.15-.25-.17-.51-.28-.44,0-.19.22-.14.18,0,.49.77.46,1,.67.81.56.88,0,.18-.22.14-.18,0-.35-.55-.39-.36-.29,0L146,57.34l-.15.25.1.4.78,1.21.71.63.9.2.58-.06.6-.15.19,0,.14.21,0,.19-2.15,1.37Zm4,6L151.1,67l-.45-.95L150,65.2l-.56-.88,0-.18.22-.14.18,0,.35.55.32.26.29,0,1.25-1.57.09-.22-1.9-3,0-.29.22-.14,5.8-1.36.18,0,.23.37.46.48,0,.18-5.34,6.91-.08.36.1.4.21.33,0,.18-.22.14Zm3.59-8.19.37-.39-.51.17-3.75.93-.13.16,1.41,2.2.2-.06Z"/><path class="cls-1" d="M153.05,72.38l-.43-1.1-.44-1.51-.5-.92-.33-.86.08-.16.24-.1.17.08.19.48.31.44.29,0,6.82-2.64.19-.21-.06-.54-.19-.48.07-.17.25-.1.17.08.32.85.26,1,.69,1.41.42,1.1a3.9,3.9,0,0,1-2.39,5.4l-.48.19A4.19,4.19,0,0,1,153.05,72.38Zm8-3-.13-.51-.09-.24-.32-.65-.26-.31-.29,0-6.7,2.59-.2.21,0,.42.2.69.09.24.25.47c.69,1.27,2.27,1.5,4.52.63S161.43,70.84,161.07,69.41Z"/><path class="cls-1" d="M156.31,84.67l.08-.28L155.63,81l-.2-1.56-.36-1-.19-.9.1-.15.25-.06.16.1.11.51.24.48.28.08,7.14-1.57.23-.18,0-.54-.11-.51.1-.15.25-.06.16.1.19.89.1,1,.46,1.5.7,3.19.18.23-.1.15-2.17.48-.15-.1-.06-.26.1-.15.48-.24.46-.37.3-.46.06-.95L164,78.85l-.21-.35-.28-.08-3,.66-.1.15.21,1,.46.57.71.18.64-.14.15.1.06.25-.1.16-.9.19-1,.15-.94.27-.89.2-.16-.1,0-.26.1-.15.63-.14.57-.46.18-.71-.21-1-.15-.1-3.38.74-.23.18,0,.41.35,1.59.47,1,.63.4.7.18.67,0,.15.1.06.26-.1.15-2.55.56Z"/><path class="cls-1" d="M157.09,93.08l.11-.27-.27-3.25V88l-.22-1-.08-.91.12-.14.26,0,.15.12,0,.52.17.51.27.11,7.3-.6.25-.15.08-.54,0-.52.12-.14.26,0,.14.12.08.91-.05,1,.22,1,.08,1-.12.14-.26,0-.14-.12,0-.65-.17-.51-.27-.11-7.3.6-.25.15-.1.4.11,1.3.35,1,.56.47.68.28.8.13.14.12,0,.26L160,93l-2.74.22Z"/><path class="cls-1" d="M161.09,98l0-1-.13-.13-3-.14-.27.12-.15.51,0,.66-.14.12h-.26l-.12-.14.05-1,.17-1-.08-1,0-.91.14-.13.26,0,.13.13,0,.52.11.53.25.14,7.31.34.26-.12.16-.51,0-.53.14-.12h.26l.12.14,0,.91-.18,1,.06,1.57,0,.78c-.09,1.89-1.06,3.09-2.49,3C162,101.52,161,100,161.09,98Zm4.56.21,0-.65-.11-.4-.25-.15-3.53-.16-.13.13,0,.85a1.92,1.92,0,0,0,2,2.18A1.8,1.8,0,0,0,165.65,98.16Z"/><path class="cls-1" d="M155,111.24l.18-.89.33-1,.08-1,.19-1,.15-.1.26.05.1.15-.11.57,0,.54.23.18,3.33.66.16-.1.71-3.59-.11-.15-3.33-.66-.28.08-.23.48-.11.58-.16.1-.25,0-.1-.15.19-1,.33-1,.07-1,.18-.9.15-.1.26,0,.1.15-.1.52,0,.53.23.18,7.17,1.42.28-.07.23-.49.1-.51.16-.11.25,0,.11.16-.18.89-.33,1-.08,1-.19,1-.15.11-.26,0-.1-.16.11-.57,0-.54-.23-.18-3-.58-.15.1-.71,3.59.1.15,2.95.58.28-.08.23-.48.11-.58.15-.1.26,0,.1.15-.19,1-.33,1-.07,1.05-.18.9-.15.1-.26-.05-.1-.15.1-.51,0-.54-.23-.18-7.17-1.42-.28.08-.23.48-.1.51-.16.11-.25,0Z"/><path class="cls-1" d="M153.28,116.16l.29-.87.46-.94.21-1,.29-.86.17-.09.24.09.09.16-.17.5,0,.53.2.21,6.93,2.34.29,0,.29-.46.17-.49.16-.08.25.08.08.16-.29.87-.46,1-.21,1-.29.87-.16.08-.25-.08-.08-.17.16-.5,0-.53-.21-.21-6.93-2.33-.29,0-.29.45-.16.5-.17.08-.25-.08Z"/><path class="cls-1" d="M149.38,124.9l.33-.71.56-.89.33-1,.44-1,.17-.06.24.11.06.17-.22.48-.1.52.18.23,2,.21.23,0,1.33-2.84-.12-.2-1.35-1.28H153l-.34.42-.19.41-.17.07-.24-.12-.06-.17.36-.77.45-.65.21-.77.3-.65.18-.06.23.11.07.17-.2.42v.43l.16.44,6,5.94.06.17-.18.39-.16.65-.17.06-8.7-.82-.35.13-.28.3-.17.35-.17.06-.23-.11Zm8.84-1.35.53.11-.42-.34-2.78-2.67-.21,0-1.1,2.37.15.14Z"/><path class="cls-1" d="M85.1,166.47,84,166.24l-1-.34-1-.09-1.21-.26-.1-.16,0-.25.16-.1,1,.21.41,0,.18-.23,1.44-6.77-.07-.28-.38-.08-1,.11-.25-.05-.11-.16.07-.32.16-.1,2-.23.56-.14.58.12.1.15-1.71,8.05.07.28.36.21.89.19.1.16,0,.25Z"/><path class="cls-1" d="M90.58,167.33c-2-.16-3.17-1.25-3-2.81a2.6,2.6,0,0,1,2.22-2.3,2.08,2.08,0,0,1-1.44-2.28,2.62,2.62,0,0,1,3.05-2.11c1.69.14,2.73,1.08,2.62,2.45a2.28,2.28,0,0,1-1.88,2.07,2.42,2.42,0,0,1,2,2.45A3,3,0,0,1,90.58,167.33Zm.4-4.75c-1-.09-1.83.7-1.93,1.94s.53,2.27,1.57,2.35,1.82-.69,1.94-2.06A1.85,1.85,0,0,0,91,162.58Zm.36-4.29c-.85-.07-1.5.59-1.59,1.7-.11,1.3.42,2,1.27,2.07s1.42-.54,1.53-1.84C92.64,159.12,92.18,158.36,91.34,158.29Z"/><path class="cls-1" d="M100,167.33c-2,.14-3.3-1.35-3.47-4l0-.39c-.18-2.8,1.25-4.92,3.4-5.06,1.36-.09,2.32.57,2.39,1.55,0,.65-.26,1.06-.85,1.1a.68.68,0,0,1-.76-.61.66.66,0,0,1,.23-.53l.59,0a1.27,1.27,0,0,0-1.44-1c-1.5.1-2.25,1.52-2.09,4.06l0,.39a2.62,2.62,0,0,1,4.85,1.26A3,3,0,0,1,100,167.33Zm-.33-5.08a1.83,1.83,0,0,0-1.49,1.28l.06.91c.1,1.5.75,2.44,1.72,2.37s1.51-1,1.41-2.44S100.6,162.19,99.69,162.25Z"/><path class="cls-1" d="M111.59,165.24l-.23.19-2.68.57-1.56.2-1,.35-.38.08-.16-.1,0-.26.1-.15.23-.18c2.39-3.19,3-4.78,2.6-6.57-.29-1.34-1.11-2-2.13-1.82a1.65,1.65,0,0,0-1.3,2l.76-.17a.85.85,0,0,1,.46.57.77.77,0,0,1-.67.95c-.57.12-1.13-.29-1.29-1.06a2.49,2.49,0,0,1,2.19-2.87,2.74,2.74,0,0,1,3.51,2c.34,1.6-.49,3.31-3,6.11l-.12.09.75-.23,2.43-.51.48-.24.2-.31.07-.62.1-.15.2,0,.15.1.37,1.72Z"/><path class="cls-1" d="M184.65,68.45C181.59,64.14,180,56.14,178.18,48c-4.77-21.36-32.33-35.59-37.64-36.38-6.24-.93-16.48-2-22.26-7.27S92.19-.43,88.41.85C83.53,2.51,72.9,7.09,67,7.16,53.53,7.33,39.19,16.39,35.83,24c-1.62,3.7-6.42,9.43-11.48,11.8C14.94,40.23,8.58,51,9.1,57.33c.3,3.79-1.09,10.42-4,13.77C1.1,75.8-.92,87.15.41,96a28.22,28.22,0,0,0,1.35,5.45C2.36,103,4.29,107.14,3,111c-2,6.2.51,18.85,5.28,22.42s7.74,11.58,9,16.12c3.16,11.14,18.69,18,22.84,21.4s12.05,4.64,15.22,8c4.53,4.77,17.28,10.31,25.27,9.38,7.38-.86,13.86-.68,18.52,1.18,6.82,2.73,26.43-1.9,33.39-7.78,5.16-4.38,9-6.47,15.15-7.78s16.28-10.6,18.18-15.84,7.81-13.84,12.79-17.52c7.47-5.53,12.5-24.07,10.39-32.42-1.31-5.17,1-17,1.25-20.58A31.71,31.71,0,0,0,184.65,68.45ZM95.62,181a84.87,84.87,0,1,1,84.87-84.87A84.87,84.87,0,0,1,95.62,181Z"/><path class="cls-1" d="M95.19,152.77a57.65,57.65,0,1,1,57.64-57.64A57.71,57.71,0,0,1,95.19,152.77Zm0-112.91a55.27,55.27,0,1,0,55.27,55.27A55.33,55.33,0,0,0,95.19,39.86Z"/><path class="cls-1" d="M95.19,174.91A79.79,79.79,0,1,1,175,95.13,79.87,79.87,0,0,1,95.19,174.91Zm0-157.2A77.42,77.42,0,1,0,172.6,95.13,77.5,77.5,0,0,0,95.19,17.71Z"/><path class="cls-1" d="M74.06,154l-1.52,3.79,3.8,1.51-.63,1.59-3.8-1.52-1.51,3.79-1.55-.62,1.51-3.78-3.79-1.52.64-1.59L71,157.2l1.51-3.79Z"/><path class="cls-1" d="M119.7,153.6l1.52,3.79,3.78-1.51.64,1.58L121.85,159l1.51,3.78-1.54.62-1.52-3.79-3.8,1.52-.63-1.59,3.8-1.51-1.51-3.79Z"/><path class="cls-1" d="M50.53,113l-.14-.55-.09-.76L50,111l-.21-.83.07-.12.23-.06.11.07.09.37.19.35.21,0,1.13-.75.12-.12-.59-2.31-.16,0L50,107.44l-.24.21V108l.08.33-.07.11-.23.06-.11-.07-.17-.64,0-.58-.23-.53-.14-.55.07-.12.23,0,.12.07.09.36.21.24.29.18,6.08.61.11.07.1.39.21.44-.07.11L51,112.05l-.14.23,0,.3.08.3-.07.11-.23.06ZM54.86,108l.39-.2-.44,0-2.8-.25-.13.08.48,1.89h.15Z"/><path class="cls-1" d="M54.61,122l-.28-.6-.24-.72-.42-.65-.26-.56,0-.12.22-.1.12,0,.15.3.24.3h.22l4.45-2.13.35-.15-6.09.35-.2,0-.13,0-.07-.14,0-.13.15-.13L57,113.05l-.33.19-4.32,2.07-.2.25,0,.4.14.3,0,.13-.22.1-.13,0-.2-.43-.2-.64-.37-.56-.22-.46,0-.12.22-.11.12.05.17.34.29.28h.32l4.58-2.19.14-.17-.08-.38-.19-.39,0-.12.21-.11.13,0,.26.55.29.71.37.67.09.19-.05.15-3.12,3.46-.21.21.29,0,4.65-.26.15.06.08.17L60,118l.33.58.28.6,0,.12-.22.11-.12-.05-.17-.34-.25-.3H59.6L54.89,121l-.13.17.08.39.16.34,0,.13-.21.1Z"/><path class="cls-1" d="M57.63,126.51a3,3,0,0,1,.63-4.49l.31-.23a3.3,3.3,0,0,1,4.76.61,3.06,3.06,0,0,1-.64,4.49l-.3.23A3.3,3.3,0,0,1,57.63,126.51Zm5.46-3.57-.17-.29-.05-.07-.24-.24c-.72-.71-1.83-.52-3.31.61s-1.94,2.14-1.45,3l.16.29.06.08.24.23c.72.71,1.83.52,3.3-.6S63.58,123.82,63.09,122.94Z"/><path class="cls-1" d="M65.83,134.82l-.46-.42a1.78,1.78,0,0,1-.67-1.59c1.19-1.29,1.35-2,.63-2.65l-.42-.38h-.14l-1.54,1.68-.06.21.22.32.33.31v.13l-.16.18h-.13l-.56-.51-.5-.59-.62-.44-.52-.48v-.13l.16-.18h.13l.29.27.35.18.2-.07,3.53-3.85.06-.2-.21-.33-.3-.27v-.13l.16-.18h.13l.52.47.5.59.9.7.46.42c1,1,1.29,2.07.63,2.78a1.91,1.91,0,0,1-2.38.13l.27.7,0,.54-.89,1.63-.05.21.15.39.25.24v.14l-.16.17ZM67.56,128l-.32-.29-.27-.12-.2.08-1.58,1.71v.13l.56.52a1.31,1.31,0,0,0,2-.09A1.28,1.28,0,0,0,67.56,128Z"/><path class="cls-1" d="M76,137.77l-.72-.35-.13,0-.91,1.83v.21l.3.26L75,140l0,.12-.11.22-.12,0-.71-.35-.64-.42-.72-.26-.63-.31,0-.13.11-.21.13,0,.36.18.38.08.17-.13,2.32-4.68v-.21l-.3-.26-.36-.18,0-.12.11-.22.12,0,.63.31.64.43,1.07.42.57.29c1.24.61,1.77,1.67,1.31,2.61S77.36,138.45,76,137.77Zm1.46-3-.43-.21-.3,0-.17.13-1.14,2.3,0,.12.51.26a1.41,1.41,0,0,0,2.12-.65A1.32,1.32,0,0,0,77.46,134.73Z"/><path class="cls-1" d="M84,143.81l-.55-.17-.69-.33-.75-.15-.81-.26-.06-.12.07-.23.12-.06.36.12.39,0,.15-.15,0-1.36,0-.17-2.26-.73-.13.1-.76,1,0,.32.33.21.32.1.06.12-.08.22-.12.07-.63-.21-.51-.27-.57-.09-.54-.17-.06-.12.07-.23.12-.06.36.12.32-.05.3-.15,3.77-4.81.12-.06.39.13.48.06.06.12.23,6.31.12.24.24.18.29.1.06.12-.08.22Zm-1.86-6.3,0-.43-.22.37-1.71,2.24v.15l1.85.61.09-.13Z"/><path class="cls-1" d="M90.52,140.07l-.21,0-.08-.11v-.48L90.1,139l-.3-.44-.55-.19-.45-.08-.1,0-.06.08-.94,5.28.06.21.35.16.47.08.08.11,0,.23-.11.08-.77-.14-.73-.22-.77,0-.76-.14-.08-.11,0-.23.11-.08.47.08.39,0,.13-.17.94-5.29,0-.1-.09-.06-.45-.08h-.57l-.44.31-.26.34-.17.45-.11.08-.22,0-.08-.11.31-1.73.11-.08.17.13,1.39.25,1.1.29,1.14.11,1.38.24.21-.06.07.11L90.63,140Z"/><path class="cls-1" d="M97.53,145.09h-.61a1.77,1.77,0,0,1-1.56-.74c0-1.76-.3-2.38-1.27-2.4l-.57,0-.1.1,0,2.28.09.19.38.1h.45l.09.1v.23l-.09.1-.76,0-.76-.11L92,145l-.7,0-.1-.09v-.24l.1-.09h.39l.39-.09.09-.19.11-5.22-.09-.19-.37-.1h-.4l-.1-.1v-.24l.1-.09h.7l.76.11,1.14-.07.62,0c1.4,0,2.33.69,2.31,1.66a1.88,1.88,0,0,1-1.69,1.67l.65.35.38.39.41,1.81.09.19.38.2h.35l.09.09V145Zm-3.24-6.28h-.42l-.29.09-.1.18,0,2.33.09.1h.76a1.32,1.32,0,0,0,1.46-1.39C95.76,139.31,95.2,138.83,94.29,138.81Z"/><path class="cls-1" d="M101.8,144.62l-.73.07h-.77l-.74.17-.73.08-.1-.08,0-.24.09-.1.42,0,.37-.13.07-.2-.55-5.19-.11-.18-.39-.06-.42.05-.11-.09,0-.23.08-.11.73-.07h.77l.74-.17.74-.08.1.08,0,.24-.09.1-.42,0-.37.13-.07.2.54,5.19.12.18.38.06.43-.05.1.09,0,.23Z"/><path class="cls-1" d="M109.43,143l-.56.13-.76.08-.72.26-.83.2-.12-.08,0-.23.07-.11.37-.09.35-.18,0-.2-.73-1.15-.12-.12-2.32.54-.06.16-.13,1.25.21.25h.39l.32-.07.12.07,0,.23-.07.11-.65.15-.58,0-.53.22-.55.13-.12-.07,0-.23.07-.11.37-.09.24-.2.18-.29.73-6.07.07-.12.4-.09.44-.2.12.07,3.47,5.29.23.14.3,0,.3-.07.11.07.06.23Zm-4.86-4.44-.19-.39v.44l-.3,2.8.08.13,1.89-.44,0-.15Z"/><path class="cls-1" d="M115.69,140.58h-.21l-2.44,1-1.09.34-.67.38-.65.27-.12,0-.09-.22,0-.13.37-.15.31-.23,0-.21-2-4.84-.16-.13-.38,0-.37.15-.13-.05-.09-.22,0-.12.65-.27.74-.2,1-.52,2.27-.94.14-.16.12,0,.64,1.54,0,.12-.2.08-.12-.05-.24-.31-.32-.28-.37-.16-.68.08-1.17.48-.23.2,0,.21.83,2,.12.05.66-.27.33-.39,0-.51-.18-.44.05-.12.2-.08.13.05.25.61.23.68.31.64.26.62,0,.12-.21.08-.12-.05-.18-.44-.39-.33-.5,0-.66.27-.06.13.94,2.25.16.14.3,0,1.11-.46.63-.46.21-.5,0-.56-.09-.45.05-.12.2-.08.12,0,.74,1.8Z"/><path class="cls-1" d="M125.38,134.16l-.69.57-.94.66-.52.55-.57.47h-.13l-.15-.19v-.13l.31-.25.23-.32-.05-.21-3.33-4-.19-.09-.35.17-.31.26-.14,0-.15-.18,0-.13.56-.47.65-.41.81-.8.7-.57a2.93,2.93,0,0,1,4.39.31l.24.29A3.16,3.16,0,0,1,125.38,134.16Zm-3.88-4.8-.28.17-.2.17-.37.37-.16.25.05.21,3.26,3.95.2.09.28-.11.43-.3.2-.16.22-.25c.55-.6.86-1.69-.47-3.3S122.2,128.93,121.5,129.36Z"/><path class="cls-1" d="M128.75,121.65l-.25.29-.13.38.08.2,3.63,3a2.74,2.74,0,0,1-.61,2.79,2.61,2.61,0,0,1-2.6,1l-3.67-3.08-.21,0-.32.22-.24.3h-.13l-.19-.16v-.13l.46-.54.56-.52.42-.65.46-.54h.13l.18.15v.13l-.27.33-.17.35.08.2,3.32,2.79a1.41,1.41,0,0,0,1.84-.38,1.49,1.49,0,0,0,.19-2L128,123l-.2,0-.36.2-.26.31-.14,0-.18-.16v-.13l.35-.41.5-.45.35-.57.35-.42h.13l.18.16Z"/><path class="cls-1" d="M136.9,119.1l-.11.18-.26.07.05.19a2.43,2.43,0,0,1-.24,1.85l-.05.08a3,3,0,0,1-4.33,1l-.33-.19a3.26,3.26,0,0,1-1.38-4.45,2.21,2.21,0,0,1,1.26-1l-.14-.52.13-.22.13,0,1.77,1,0,.13-.1.18-.13,0-.51-.08a1.89,1.89,0,0,0-2,.76c-.58,1,.06,2.09,1.74,3.06,1.94,1.12,3,.91,3.57-.09a1.84,1.84,0,0,0-.39-2.17l-.32-.4,0-.13.1-.18.13,0,1.4.81Z"/><path class="cls-1" d="M139.34,114.62l-.28.68-.38.67-.2.74-.28.67-.13.05-.22-.09,0-.12.17-.4.05-.38-.13-.16-4.83-2-.21,0-.23.31-.17.4-.12,0-.22-.09-.05-.13.28-.67.38-.67.2-.73.29-.69.12,0,.22.09,0,.12-.16.4-.06.39.14.16,4.82,2,.21,0,.24-.31.16-.39.12,0,.22.09Z"/><path class="cls-1" d="M136.74,106.73l-.06.21-.12.06-.48,0-.42.08-.47.26-.24.53-.13.44,0,.1.08.07,5.17,1.44.21,0,.19-.34.13-.45.12-.07.23.06.06.12-.21.75-.29.71-.11.75-.21.75-.12.07-.23-.06-.07-.12.13-.46v-.39l-.15-.14-5.17-1.44-.11,0-.07.07-.12.44-.06.58.26.47.31.28.44.22.06.12-.06.21-.11.06-1.7-.47-.06-.12.14-.15.38-1.36.4-1.07.21-1.12.38-1.36,0-.21.12-.06,1.69.47Z"/><path class="cls-1" d="M95.28,45.84c-5.28,9-17.14,15-28.72,8.52L65.84,54l-.25.78c-9.86,30.06,8.28,66.92,29.88,77.39l.3.14.29-.14c21.68-10.51,39.93-47.38,30.08-77.39l-.25-.78-.72.41c-11.58,6.53-23.44.49-28.72-8.52l-.59-1Zm.58,1.55c5.73,8.87,17.51,14.59,29.21,8.51a56,56,0,0,1,2.48,16.65c0,24.73-14.77,49.74-31.78,58.2-16.93-8.42-31.6-33.37-31.6-58.09A56.11,56.11,0,0,1,66.66,55.9C78.36,62,90.14,56.26,95.86,47.39Z"/><path class="cls-1" d="M69.3,81.08H64.47v.09A75.61,75.61,0,0,0,69.3,99.05Z"/><path class="cls-1" d="M74.13,81.08v27.8A71.58,71.58,0,0,0,79,116.11v-35Z"/><path class="cls-1" d="M83.79,81.08v40.65a51.82,51.82,0,0,0,4.82,4.4v-45Z"/><path class="cls-1" d="M93.44,81.08v48.4c.77.45,1.55.88,2.33,1.27.84-.42,1.67-.88,2.5-1.38V81.08Z"/><path class="cls-1" d="M103.1,81.08V126a53.49,53.49,0,0,0,4.83-4.42V81.08Z"/><path class="cls-1" d="M112.75,81.08v34.86a71.58,71.58,0,0,0,4.83-7.23V81.08Z"/><path class="cls-1" d="M122.41,98.88a75.11,75.11,0,0,0,4.83-17.8h-4.83Z"/><path class="cls-1" d="M96.93,54.42h3.15v0l-2.53,1.88,1,3,0,0L96,57.48l-2.5,1.85,0,0,1-3-2.55-1.88v0h3.13L96,51.49h0Z"/><path class="cls-1" d="M70.36,62.88H73.5v0L71,64.77l1,3,0,0-2.49-1.85-2.5,1.85,0,0,1-3L65.36,62.9v0h3.13l.93-2.94h0Z"/><path class="cls-1" d="M70.36,73.62H73.5v0L71,75.52l1,3,0,0-2.49-1.86-2.5,1.86,0,0,1-3-2.55-1.88v0h3.13l.93-2.94h0Z"/><path class="cls-1" d="M80.93,62.88h3.14v0l-2.53,1.87,1,3,0,0L80,65.93l-2.5,1.85,0,0,1-3L75.93,62.9v0h3.13L80,59.94h0Z"/><path class="cls-1" d="M80.93,73.62h3.14v0l-2.53,1.88,1,3,0,0L80,76.67l-2.5,1.86,0,0,1-3-2.55-1.88v0h3.13L80,70.68h0Z"/><path class="cls-1" d="M91.5,62.88h3.14v0l-2.53,1.87,1,3,0,0-2.49-1.85-2.5,1.85,0,0,1-3L86.5,62.9v0h3.13l.94-2.94h0Z"/><path class="cls-1" d="M91.5,73.62h3.14v0l-2.53,1.88,1,3,0,0-2.49-1.86-2.5,1.86,0,0,1-3L86.5,73.64v0h3.13l.94-2.94h0Z"/><path class="cls-1" d="M102.07,62.88h3.14v0l-2.53,1.87,1,3,0,0-2.49-1.85-2.5,1.85,0,0,1-3L97.07,62.9v0h3.13l.94-2.94h0Z"/><path class="cls-1" d="M102.07,73.62h3.14v0l-2.53,1.88,1,3,0,0-2.49-1.86-2.5,1.86,0,0,1-3-2.55-1.88v0h3.13l.94-2.94h0Z"/><path class="cls-1" d="M112.64,62.88h3.14v0l-2.53,1.87,1,3,0,0-2.49-1.85-2.5,1.85,0,0,1-3-2.55-1.87v0h3.13l.94-2.94h0Z"/><path class="cls-1" d="M112.64,73.62h3.14v0l-2.53,1.88,1,3,0,0-2.49-1.86-2.5,1.86,0,0,1-3-2.55-1.88v0h3.13l.94-2.94h0Z"/><path class="cls-1" d="M123.22,62.88h3.14v0l-2.54,1.87,1,3,0,0-2.5-1.85-2.5,1.85,0,0,1-3-2.55-1.87v0h3.13l.94-2.94h0Z"/><path class="cls-1" d="M123.22,73.62h3.14v0l-2.54,1.88,1,3,0,0-2.5-1.86-2.5,1.86,0,0,1-3-2.55-1.88v0h3.13l.94-2.94h0Z"/></g></g></svg>