<?xml version="1.0" standalone="no"?>
<!DOCTYPE svg PUBLIC "-//W3C//DTD SVG 20010904//EN"
 "http://www.w3.org/TR/2001/REC-SVG-20010904/DTD/svg10.dtd">
<svg version="1.0" xmlns="http://www.w3.org/2000/svg"
 width="260.000000pt" height="260.000000pt" viewBox="0 0 260.000000 260.000000"
 preserveAspectRatio="xMidYMid meet">
<metadata>
Created by potrace 1.14, written by Peter Selinger 2001-2017
</metadata>
<g transform="translate(0.000000,260.000000) scale(0.100000,-0.100000)"
fill="#000000" stroke="none">
<path d="M0 1300 l0 -1300 1300 0 1300 0 0 1300 0 1300 -1300 0 -1300 0 0
-1300z m1648 33 l2 -903 213 -2 c204 -3 212 -4 212 -23 0 -20 -7 -20 -770 -20
-763 0 -770 0 -770 20 0 19 8 20 218 23 l217 2 -2 708 c-3 701 -3 707 -23 704
-11 -1 -82 -5 -157 -9 -116 -5 -138 -3 -138 8 0 11 30 17 133 27 137 12 235
35 340 77 33 14 65 25 70 25 5 0 46 18 90 41 91 46 197 119 270 186 32 30 55
43 70 41 l22 -3 3 -902z"/>
</g>
</svg>
